<?xml version="1.0" encoding="utf-8"?>
<!-- Generator: Adobe Illustrator 24.1.3, SVG Export Plug-In . SVG Version: 6.00 Build 0)  -->
<svg version="1.1" id="Layer_1" xmlns="http://www.w3.org/2000/svg" xmlns:xlink="http://www.w3.org/1999/xlink" x="0px" y="0px"
	 viewBox="0 0 150 150" style="enable-background:new 0 0 150 150;" xml:space="preserve">
<style type="text/css">
	.st0{display:none;}
	.st1{display:inline;fill:none;}
	.st2{fill:#E5E5E5;}
	.st3{fill:#1A202C;}
</style>
<g>
	<g id="canvasGrid" class="st0">
		<rect x="3" y="63.5" class="st1" width="140" height="23"/>
	</g>
</g>
<circle class="st2" cx="75" cy="74.8" r="71.9"/>
<g>
	<g>
		<path class="st3" d="M131.4,119.4l-8-19.8c-5.5,2.9-11.9,5.2-19.1,7c-7.2,1.7-13.9,2.6-20.3,2.6c-16.6,0-24.9-3.3-24.9-9.8
			c0-2.8,1.2-4.9,3.5-6.4c2.3-1.5,5.9-2.3,10.6-2.3h39.9V59.3h-37c-4.2,0-7.2-0.7-9-2c-1.8-1.3-2.7-3.3-2.7-5.8c0-3,1.8-5.4,5.5-7
			c3.7-1.7,9.2-2.5,16.7-2.5c11.4,0,22.8,2.3,34.2,6.9l8.1-21.8c-5.5-6.2-12.1-11.5-19.4-15.5c-8-1.4-16.2-2.1-24.5-2.1
			c-14,0-25.8,1.8-35.3,5.4c-9.6,3.6-16.7,8.4-21.3,14.4c-4.6,6-7,12.5-7,19.6c0,5.2,1.2,9.9,3.7,14.2c2.5,4.3,6.1,7.7,10.9,10.4
			c-6.4,2.8-11.3,6.7-14.7,11.7c-3.4,5.1-5.2,10.8-5.2,17.2c0,7.7,2.5,14.5,7.6,20.5c5.1,6,12.6,10.6,22.5,13.9c9.9,3.3,22,5,36.2,5
			c7.9,0,15.7-0.6,23.3-1.9C115.8,135.1,124.6,128,131.4,119.4z"/>
	</g>
</g>
</svg>
